<svg viewBox="0 0 106 60" xmlns="http://www.w3.org/2000/svg">
<path d="M26.7569 44.7352C27.0006 45.0113 27.1304 45.3572 27.1236 45.7121C27.136 45.9437 27.0914 46.1748 26.993 46.3884C26.8947 46.6021 26.7451 46.7927 26.5554 46.9462C26.082 47.2735 25.4956 47.4336 24.9037 47.3969H22V41.2054H24.8442C25.4057 41.1712 25.9626 41.3166 26.42 41.6168C26.6036 41.7575 26.7491 41.9354 26.8448 42.1365C26.9406 42.3375 26.984 42.5562 26.9716 42.7752C26.9883 43.1167 26.8712 43.4525 26.6413 43.7219C26.4206 43.9679 26.1156 44.1385 25.7758 44.2059C26.161 44.2702 26.5087 44.4578 26.7569 44.7352V44.7352ZM23.3511 43.8006H24.5667C24.843 43.8193 25.1174 43.7463 25.3397 43.5949C25.431 43.5191 25.502 43.4252 25.5473 43.3203C25.5925 43.2154 25.6108 43.1024 25.6007 42.99C25.6093 42.8779 25.5906 42.7656 25.5461 42.661C25.5015 42.5564 25.4322 42.4621 25.343 42.385C25.1141 42.2294 24.8312 42.1552 24.5469 42.1763H23.3511V43.8006ZM25.4587 46.1749C25.5562 46.0974 25.6329 46.0003 25.6828 45.8911C25.7326 45.782 25.7543 45.6638 25.7461 45.5458C25.7535 45.4264 25.7309 45.307 25.6799 45.1968C25.6289 45.0867 25.551 44.9888 25.4521 44.9106C25.2142 44.7492 24.9217 44.6699 24.6262 44.6868H23.3511V46.3897H24.6427C24.9334 46.405 25.2212 46.3293 25.4587 46.1749V46.1749Z" />
<path d="M32.5709 47.3969L30.9886 44.9772H30.394V47.3969H29.033V41.2054H31.6096C32.2591 41.1639 32.9012 41.3523 33.4034 41.7317C33.7635 42.0677 33.9808 42.5105 34.0159 42.9803C34.051 43.45 33.9018 43.9157 33.595 44.2936C33.2771 44.6271 32.8428 44.8494 32.3661 44.9227L34.0508 47.3969H32.5709ZM30.394 44.1333H31.5072C32.2802 44.1333 32.6667 43.8207 32.6667 43.1956C32.6746 43.068 32.6534 42.9402 32.6045 42.8205C32.5556 42.7007 32.48 42.5916 32.3826 42.5C32.1383 42.314 31.8237 42.2237 31.5072 42.2489H30.3807L30.394 44.1333Z" />
<path d="M40.0102 46.1506H37.2981L36.8191 47.3967H35.392L37.8828 41.2748H39.4255L41.9063 47.3967H40.4793L40.0102 46.1506ZM39.6468 45.2129L38.6558 42.5996L37.6648 45.2129H39.6468Z" />
<path d="M49.3224 47.3968H47.9713L44.9421 43.1865V47.3968H43.5943V41.2053H44.9421L47.9713 45.4398V41.2053H49.3224V47.3968Z" />
<path d="M57.0326 45.9148C56.7532 46.3823 56.3276 46.7625 55.8103 47.0067C55.2222 47.2787 54.5695 47.4128 53.9109 47.3969H51.506V41.2054H53.9109C54.5684 41.1897 55.2202 41.3205 55.8103 41.5865C56.3275 41.8252 56.7536 42.2016 57.0326 42.6663C57.3107 43.1699 57.4556 43.7263 57.4556 44.2906C57.4556 44.8549 57.3107 45.4112 57.0326 45.9148V45.9148ZM55.4866 45.7666C55.8722 45.3553 56.0842 44.8311 56.0842 44.2891C56.0842 43.747 55.8722 43.2228 55.4866 42.8115C55.0205 42.439 54.4127 42.2498 53.7952 42.2852H52.8571V46.2929H53.7952C54.4127 46.3283 55.0205 46.1392 55.4866 45.7666Z" />
<path d="M40.8558 6.76666C40.8558 6.76666 58.2945 12.7948 57.9245 21.5179V36.2722C57.9245 36.2722 40.4991 30.241 40.8624 21.5179L40.8558 6.76666Z" />
<path d="M73.4603 32.8179C76.7538 30.7427 80.5633 29.4573 84.5399 29.0795V24.4608C79.9579 26.0778 76.0709 29.0097 73.4603 32.8179V32.8179Z" />
<path d="M71.4816 34.2094C74.1773 29.2395 78.8505 25.4045 84.54 23.493V10.1846C84.54 10.1846 59.705 18.7716 60.2303 31.1938V52.2C60.2303 52.2 61.3369 51.8159 63.0778 51.096C63.0778 50.4246 63.0778 49.747 63.1571 49.0665C63.6711 43.2995 66.6654 37.9554 71.4816 34.2094V34.2094Z" />
<path d="M69.1197 42.013C69.2502 40.5561 69.5413 39.1151 69.9885 37.7119C66.9896 40.947 65.1734 44.9613 64.7956 49.1905C64.7592 49.5897 64.7394 49.989 64.7295 50.4003C66.14 49.7803 67.7818 49.006 69.5062 48.0956C69.0662 46.0947 68.936 44.0471 69.1197 42.013V42.013Z" />
<path d="M70.1075 42.0886C69.9421 43.9289 70.0454 45.7812 70.4147 47.5965C77.1999 43.8792 84.8241 38.1354 84.5301 31.1938V30.5889C79.6824 31.0855 75.1468 33.0259 71.6204 36.1119C70.7948 38.0243 70.2849 40.0386 70.1075 42.0886V42.0886Z" />
</svg>
