<svg viewBox="0 0 106 60" xmlns="http://www.w3.org/2000/svg">
<path d="M24.1462 21.1029H24.1433C21.7453 21.1029 19.8013 22.8305 19.8013 24.9616V24.9641C19.8013 27.0952 21.7453 28.8228 24.1433 28.8228H24.1462C26.5442 28.8228 28.4882 27.0952 28.4882 24.9641V24.9616C28.4882 22.8305 26.5442 21.1029 24.1462 21.1029Z" />
<path d="M56.195 19.8693C56.1882 16.9094 54.8623 14.0723 52.5074 11.979C50.1525 9.88574 46.9604 8.70673 43.6297 8.70001V8.70001C40.298 8.70539 37.1045 9.8838 34.7484 11.9772C32.3922 14.0706 31.0655 16.9085 31.0587 19.8693V19.8693V36.1922C31.0587 36.1922 56.1922 33.7045 56.195 19.8719V19.8693Z" />
<path d="M11 41.5495C11.006 43.6091 11.9291 45.5829 13.5676 47.0395C15.2061 48.4961 17.4267 49.3171 19.7442 49.3231C22.0612 49.3171 24.2814 48.4964 25.9197 47.0404C27.5581 45.5843 28.4816 43.6112 28.4884 41.5521V30.1944C28.4884 30.1944 11 31.9267 11 41.5495ZM19.7442 43.5845C19.2913 43.5845 18.8486 43.4652 18.472 43.2415C18.0955 43.0179 17.802 42.7001 17.6287 42.3283C17.4554 41.9564 17.41 41.5473 17.4984 41.1525C17.5867 40.7578 17.8048 40.3952 18.125 40.1106C18.4453 39.826 18.8533 39.6322 19.2975 39.5537C19.7416 39.4751 20.202 39.5154 20.6205 39.6695C21.0389 39.8235 21.3965 40.0843 21.6481 40.419C21.8997 40.7536 22.034 41.1471 22.034 41.5495C22.0351 41.8174 21.9767 42.0828 21.8622 42.3306C21.7476 42.5784 21.5791 42.8036 21.3664 42.9934C21.1536 43.1832 20.9008 43.3338 20.6224 43.4365C20.3441 43.5392 20.0456 43.5921 19.7442 43.5921V43.5845Z" />
<path d="M37.4177 42.4638H35.7302V44.207H34.8513V39.9413H37.6286V40.6533H35.7302V41.7548H37.4177V42.4638ZM41.6423 42.1708C41.6423 42.5908 41.5681 42.9589 41.4196 43.2753C41.2712 43.5917 41.0583 43.8359 40.7809 44.0078C40.5056 44.1796 40.1891 44.2656 39.8317 44.2656C39.4782 44.2656 39.1628 44.1806 38.8854 44.0107C38.6081 43.8408 38.3932 43.5986 38.2409 43.2841C38.0886 42.9677 38.0114 42.6044 38.0095 42.1943V41.9833C38.0095 41.5634 38.0847 41.1943 38.235 40.8759C38.3874 40.5556 38.6013 40.3105 38.8766 40.1406C39.154 39.9687 39.4704 39.8828 39.8259 39.8828C40.1813 39.8828 40.4968 39.9687 40.7722 40.1406C41.0495 40.3105 41.2634 40.5556 41.4138 40.8759C41.5661 41.1943 41.6423 41.5624 41.6423 41.9804V42.1708ZM40.7516 41.9775C40.7516 41.5302 40.6716 41.1904 40.5114 40.9579C40.3513 40.7255 40.1227 40.6093 39.8259 40.6093C39.5309 40.6093 39.3034 40.7245 39.1432 40.955C38.9831 41.1835 38.902 41.5195 38.9001 41.9628V42.1708C38.9001 42.6064 38.9802 42.9443 39.1403 43.1845C39.3005 43.4247 39.5309 43.5449 39.8317 43.5449C40.1266 43.5449 40.3532 43.4296 40.5114 43.1992C40.6696 42.9667 40.7497 42.6288 40.7516 42.1855V41.9775ZM44.4929 43.0878C44.4929 42.9218 44.4343 42.7949 44.3171 42.707C44.1999 42.6171 43.989 42.5234 43.6843 42.4257C43.3796 42.3261 43.1384 42.2285 42.9606 42.1328C42.4763 41.871 42.2341 41.5185 42.2341 41.0751C42.2341 40.8447 42.2985 40.6396 42.4274 40.4599C42.5583 40.2783 42.7448 40.1367 42.987 40.0351C43.2311 39.9335 43.5046 39.8828 43.8073 39.8828C44.112 39.8828 44.3835 39.9384 44.6218 40.0497C44.86 40.1591 45.0446 40.3144 45.1755 40.5156C45.3083 40.7167 45.3747 40.9453 45.3747 41.2011H44.4958C44.4958 41.0058 44.4343 40.8544 44.3112 40.747C44.1882 40.6376 44.0153 40.5829 43.7927 40.5829C43.5778 40.5829 43.4108 40.6288 43.2917 40.7206C43.1725 40.8105 43.113 40.9296 43.113 41.0781C43.113 41.2167 43.1823 41.3329 43.321 41.4267C43.4616 41.5204 43.6677 41.6083 43.9391 41.6904C44.4391 41.8408 44.8034 42.0273 45.0319 42.2499C45.2604 42.4726 45.3747 42.7499 45.3747 43.082C45.3747 43.4511 45.235 43.7411 44.9557 43.9521C44.6765 44.1611 44.3005 44.2656 43.8278 44.2656C43.4997 44.2656 43.2009 44.206 42.9313 44.0869C42.6618 43.9658 42.4557 43.8007 42.3132 43.5917C42.1725 43.3828 42.1022 43.1406 42.1022 42.8652H42.9841C42.9841 43.3359 43.2653 43.5712 43.8278 43.5712C44.0368 43.5712 44.1999 43.5292 44.3171 43.4453C44.4343 43.3593 44.4929 43.2402 44.4929 43.0878ZM49.1833 40.6533H47.8766V44.207H46.9977V40.6533H45.7087V39.9413H49.1833V40.6533ZM52.2536 42.3583H50.5661V43.5009H52.5466V44.207H49.6872V39.9413H52.5407V40.6533H50.5661V41.6699H52.2536V42.3583ZM54.6413 42.6454H53.9411V44.207H53.0622V39.9413H54.6472C55.1511 39.9413 55.5397 40.0536 55.8132 40.2783C56.0866 40.5029 56.2233 40.8203 56.2233 41.2304C56.2233 41.5214 56.1599 41.7646 56.0329 41.9599C55.9079 42.1533 55.7175 42.3076 55.4616 42.4228L56.3845 44.166V44.207H55.4411L54.6413 42.6454ZM53.9411 41.9335H54.6501C54.8708 41.9335 55.0417 41.8779 55.1628 41.7665C55.2839 41.6533 55.3444 41.498 55.3444 41.3007C55.3444 41.0995 55.2868 40.9413 55.1716 40.8261C55.0583 40.7109 54.8835 40.6533 54.6472 40.6533H53.9411V41.9335ZM59.2673 42.704V44.207H58.3884V39.9413H60.0524C60.3727 39.9413 60.654 39.9999 60.8962 40.1171C61.1403 40.2343 61.3278 40.4013 61.4587 40.6181C61.5895 40.8329 61.655 41.0781 61.655 41.3535C61.655 41.7714 61.5114 42.1015 61.2243 42.3437C60.9391 42.5839 60.5436 42.704 60.0378 42.704H59.2673ZM59.2673 41.9921H60.0524C60.2849 41.9921 60.4616 41.9374 60.5827 41.8281C60.7057 41.7187 60.7673 41.5624 60.7673 41.3593C60.7673 41.1503 60.7057 40.9814 60.5827 40.8525C60.4597 40.7236 60.2897 40.6572 60.0729 40.6533H59.2673V41.9921ZM64.8278 42.3583H63.1403V43.5009H65.1208V44.207H62.2614V39.9413H65.1149V40.6533H63.1403V41.6699H64.8278V42.3583ZM68.9059 40.6533H67.5993V44.207H66.7204V40.6533H65.4313V39.9413H68.9059V40.6533ZM71.9763 42.3583H70.2888V43.5009H72.2692V44.207H69.4099V39.9413H72.2634V40.6533H70.2888V41.6699H71.9763V42.3583ZM74.364 42.6454H73.6638V44.207H72.7849V39.9413H74.3698C74.8737 39.9413 75.2624 40.0536 75.5358 40.2783C75.8093 40.5029 75.946 40.8203 75.946 41.2304C75.946 41.5214 75.8825 41.7646 75.7556 41.9599C75.6306 42.1533 75.4401 42.3076 75.1843 42.4228L76.1071 44.166V44.207H75.1638L74.364 42.6454ZM73.6638 41.9335H74.3727C74.5934 41.9335 74.7643 41.8779 74.8854 41.7665C75.0065 41.6533 75.0671 41.498 75.0671 41.3007C75.0671 41.0995 75.0095 40.9413 74.8942 40.8261C74.7809 40.7109 74.6061 40.6533 74.3698 40.6533H73.6638V41.9335ZM78.8288 43.0878C78.8288 42.9218 78.7702 42.7949 78.653 42.707C78.5358 42.6171 78.3249 42.5234 78.0202 42.4257C77.7155 42.3261 77.4743 42.2285 77.2966 42.1328C76.8122 41.871 76.57 41.5185 76.57 41.0751C76.57 40.8447 76.6345 40.6396 76.7634 40.4599C76.8942 40.2783 77.0807 40.1367 77.3229 40.0351C77.5671 39.9335 77.8405 39.8828 78.1432 39.8828C78.4479 39.8828 78.7194 39.9384 78.9577 40.0497C79.196 40.1591 79.3806 40.3144 79.5114 40.5156C79.6442 40.7167 79.7106 40.9453 79.7106 41.2011H78.8317C78.8317 41.0058 78.7702 40.8544 78.6472 40.747C78.5241 40.6376 78.3513 40.5829 78.1286 40.5829C77.9138 40.5829 77.7468 40.6288 77.6276 40.7206C77.5085 40.8105 77.4489 40.9296 77.4489 41.0781C77.4489 41.2167 77.5182 41.3329 77.6569 41.4267C77.7975 41.5204 78.0036 41.6083 78.2751 41.6904C78.7751 41.8408 79.1393 42.0273 79.3679 42.2499C79.5964 42.4726 79.7106 42.7499 79.7106 43.082C79.7106 43.4511 79.571 43.7411 79.2917 43.9521C79.0124 44.1611 78.6364 44.2656 78.1638 44.2656C77.8356 44.2656 77.5368 44.206 77.2673 44.0869C76.9977 43.9658 76.7917 43.8007 76.6491 43.5917C76.5085 43.3828 76.4382 43.1406 76.4382 42.8652H77.32C77.32 43.3359 77.6013 43.5712 78.1638 43.5712C78.3727 43.5712 78.5358 43.5292 78.653 43.4453C78.7702 43.3593 78.8288 43.2402 78.8288 43.0878Z" />
</svg>
